<svg xmlns="http://www.w3.org/2000/svg" width="14" height="14"><path d="M 2.625 0 L 11.375 0 C 12.825 0 14 1.175 14 2.625 L 14 11.375 C 14 12.825 12.825 14 11.375 14 L 2.625 14 C 1.175 14 0 12.825 0 11.375 L 0 2.625 L 0 2.625 C 0 1.175 1.175 0 2.625 0 Z M 9.625 9.154 L 10.986 9.154 L 11.375 7.337 L 9.625 7.337 L 9.625 6.125 C 9.533 5.611 9.678 5.244 10.403 5.317 L 11.375 5.317 L 11.375 3.5 C 11.21 3.551 10.645 3.5 10.014 3.5 C 8.616 3.5 7.677 4.37 7.681 5.923 L 7.681 7.337 L 6.125 7.337 L 6.125 9.154 L 7.681 9.154 L 7.681 14 L 9.625 14 Z" fill="blue"></path></svg>